<?xml version="1.0" standalone="no"?>
<!DOCTYPE svg PUBLIC "-//W3C//DTD SVG 20010904//EN"
 "http://www.w3.org/TR/2001/REC-SVG-20010904/DTD/svg10.dtd">
<svg version="1.0" xmlns="http://www.w3.org/2000/svg"
 width="1000.000000pt" height="1000.000000pt" viewBox="0 0 1000.000000 1000.000000"
 preserveAspectRatio="xMidYMid meet">
<metadata>
Created by potrace 1.11, written by Peter Selinger 2001-2013
</metadata>
<g transform="translate(0.000000,1000.000000) scale(0.100000,-0.100000)"
fill="#000000" stroke="none">
<path d="M5766 9677 c-15 -11 -17 -29 -14 -157 3 -143 3 -145 -19 -148 -18 -3
-23 3 -28 35 -14 88 -19 98 -50 98 l-30 0 4 -162 c3 -154 3 -163 -15 -164
-173 -7 -266 -18 -291 -34 -26 -17 -31 -60 -10 -89 12 -16 25 -17 161 -9 81 4
149 6 152 4 2 -2 4 -28 4 -58 0 -51 -1 -53 -27 -54 -16 0 -89 -6 -163 -12
l-135 -12 -3 -35 c-1 -19 1 -41 6 -47 9 -14 103 -35 124 -29 7 3 54 7 105 10
l91 7 8 -88 c9 -95 7 -337 -2 -366 -5 -16 -15 -17 -107 -11 -56 3 -131 12
-167 19 -46 9 -124 11 -265 7 -110 -4 -254 -6 -320 -7 l-120 0 -12 47 c-6 26
-14 96 -18 156 l-7 109 73 59 c41 33 114 85 164 117 49 32 93 67 97 78 11 30
-7 56 -55 80 -23 12 -99 53 -169 91 l-128 71 0 148 c0 141 -1 148 -21 154 -32
10 -58 -20 -61 -73 -3 -44 -4 -45 -38 -46 -42 -2 -50 7 -50 60 0 23 -3 69 -6
102 -5 48 -11 63 -26 68 -41 13 -50 -12 -47 -126 l4 -105 -30 0 c-29 0 -30 1
-31 50 -1 28 -2 55 -3 61 -1 15 -27 25 -46 18 -19 -8 -38 -79 -30 -112 3 -14
10 -100 15 -191 l9 -166 -29 -30 c-17 -17 -30 -38 -30 -46 0 -8 -7 -25 -16
-37 -19 -28 -127 -102 -148 -102 -9 0 -16 -4 -16 -8 0 -8 -147 -105 -210 -138
-20 -11 -80 -50 -134 -89 -54 -38 -107 -69 -117 -67 -25 4 -126 -134 -183
-251 -25 -51 -63 -146 -85 -212 -22 -66 -44 -121 -49 -123 -13 -4 -111 104
-175 195 -30 43 -99 118 -152 166 -80 73 -102 88 -121 83 -17 -5 -30 1 -48 20
-41 45 -84 8 -53 -46 13 -21 15 -40 11 -74 l-7 -47 67 -66 c36 -36 66 -67 66
-68 0 -14 -147 -164 -488 -498 l-202 -199 -62 56 c-34 31 -69 56 -77 56 -9 1
-34 9 -55 19 -22 11 -45 17 -52 14 -21 -8 -25 -35 -9 -60 9 -13 15 -38 13 -54
-2 -24 8 -40 67 -100 39 -39 103 -98 143 -130 129 -104 182 -153 178 -164 -2
-5 10 -24 27 -42 19 -20 27 -38 23 -48 -8 -23 -15 -19 -88 50 -73 68 -262 219
-323 257 -71 46 -205 116 -469 248 -142 71 -263 133 -270 138 -35 28 -363 113
-510 132 -48 6 -106 17 -128 24 -28 10 -72 13 -159 9 -149 -7 -177 -21 -197
-98 -17 -69 4 -164 68 -309 27 -62 50 -117 50 -123 0 -6 18 -30 39 -55 22 -24
67 -89 101 -144 114 -182 187 -278 282 -368 51 -49 122 -116 158 -150 36 -34
81 -73 100 -86 19 -13 58 -43 86 -66 88 -74 340 -215 454 -254 60 -21 120 -47
120 -53 0 -1 -4 -18 -10 -36 -8 -30 -6 -41 15 -77 14 -23 25 -45 25 -48 0 -9
-492 -6 -638 4 l-133 9 -62 -46 c-61 -46 -157 -127 -268 -228 -31 -27 -91 -82
-135 -121 -123 -112 -164 -147 -231 -197 -34 -26 -70 -58 -81 -72 -11 -13 -31
-30 -46 -36 -26 -12 -38 -33 -13 -23 8 3 33 -16 57 -43 24 -26 66 -73 95 -103
28 -30 94 -107 146 -170 53 -63 119 -135 147 -158 28 -24 80 -82 115 -130 82
-112 118 -150 148 -156 73 -14 487 -31 772 -31 343 0 346 0 347 -43 0 -15 38
-130 51 -154 12 -23 10 -23 -49 7 -99 49 -210 51 -320 4 -66 -28 -212 -132
-283 -201 -68 -66 -125 -97 -176 -98 -36 0 -63 29 -63 68 0 34 70 102 104 102
32 0 33 -13 4 -32 -31 -21 -18 -48 24 -48 109 0 103 135 -6 155 -46 9 -121
-28 -153 -74 -47 -69 -35 -172 27 -226 57 -51 178 -9 302 105 71 65 178 137
247 166 20 8 68 14 122 14 91 0 113 -11 62 -31 -134 -52 -260 -132 -311 -196
-32 -41 -81 -133 -92 -173 -10 -36 -34 -32 -38 8 -4 43 -22 41 -22 -3 0 -28
-4 -35 -20 -35 -11 0 -20 4 -20 8 0 5 -7 17 -15 28 -15 18 -16 17 -10 -13 8
-41 -8 -49 -44 -24 -41 30 -49 26 -17 -8 l27 -28 -47 -12 c-63 -16 -144 -58
-144 -75 0 -9 20 -19 53 -26 98 -24 123 -38 136 -78 14 -45 15 -75 6 -168 -7
-68 -7 -72 14 -79 19 -6 36 6 101 69 43 42 84 76 91 76 8 0 20 -9 27 -20 7
-11 17 -20 24 -20 6 0 4 8 -6 19 -11 13 -15 27 -11 40 8 27 23 26 52 -1 32
-30 40 -16 9 15 -36 36 -35 60 0 46 34 -12 44 -3 18 16 -17 13 -14 14 42 15
34 0 92 9 130 21 61 19 75 29 154 109 49 50 100 92 115 96 15 4 47 0 77 -10
28 -9 61 -16 74 -16 33 0 59 -32 106 -130 22 -47 49 -101 59 -120 11 -19 32
-58 46 -87 l26 -51 -41 -69 c-23 -38 -105 -138 -182 -221 -77 -84 -140 -156
-140 -161 0 -11 -228 -218 -300 -272 l-55 -41 -5 43 c-3 24 -9 50 -14 57 -5 8
-40 29 -79 48 -83 39 -135 44 -162 14 -10 -11 -20 -19 -22 -17 -6 7 40 102 55
113 8 6 16 20 17 30 3 40 18 90 33 112 8 12 12 26 8 29 -11 11 -102 3 -123
-10 -7 -5 -18 -5 -23 -2 -6 3 -22 -2 -38 -13 -15 -11 -51 -25 -80 -31 -59 -12
-163 -62 -192 -91 -11 -11 -30 -20 -42 -19 -44 0 -158 -14 -158 -20 0 -9 30
-54 44 -66 31 -27 116 -164 110 -178 -7 -20 -90 -32 -128 -17 -54 20 -129 16
-176 -11 -69 -38 -94 -97 -98 -229 -3 -102 -2 -107 30 -170 56 -110 132 -131
349 -96 172 28 312 109 550 318 36 32 69 58 72 58 4 0 7 -21 7 -48 0 -38 8
-59 40 -108 71 -110 137 -120 229 -35 l53 50 -7 48 c-13 89 -46 123 -121 123
-37 0 -94 -24 -94 -40 0 -6 -4 -10 -9 -10 -5 0 -11 18 -13 40 -4 44 8 60 81
110 19 13 63 50 100 82 36 32 72 58 80 58 21 0 207 127 271 185 67 61 248 169
310 186 61 16 107 6 154 -35 l40 -33 -21 -29 c-11 -16 -23 -39 -27 -51 -4 -13
-31 -55 -59 -95 -135 -188 -260 -374 -327 -488 -227 -384 -251 -421 -377 -589
-43 -56 -109 -147 -148 -202 -38 -54 -83 -116 -99 -138 -24 -35 -27 -46 -22
-83 6 -39 12 -47 69 -84 34 -22 89 -56 122 -74 33 -18 130 -79 215 -135 85
-57 211 -138 280 -180 69 -43 146 -95 171 -116 67 -56 94 -51 145 23 16 24 34
48 40 55 25 26 178 285 199 337 10 22 33 65 52 95 20 31 77 128 128 217 51 88
108 182 127 210 19 27 56 87 82 134 26 47 64 111 84 142 82 126 119 181 164
244 26 36 53 81 60 100 7 19 19 34 28 34 18 0 61 -28 73 -47 5 -8 25 -24 46
-37 32 -20 39 -32 50 -79 10 -47 10 -64 -3 -108 -9 -29 -16 -90 -16 -135 0
-45 -3 -95 -6 -112 -6 -29 -9 -30 -73 -37 -36 -3 -113 -19 -171 -35 -58 -15
-120 -31 -138 -35 -39 -8 -37 -24 4 -45 16 -9 60 -32 99 -53 38 -20 74 -37 81
-37 6 0 45 -16 86 -34 l74 -35 -7 -58 c-4 -32 -25 -110 -47 -174 -22 -64 -43
-135 -47 -158 l-7 -41 64 35 c76 42 70 38 158 99 39 27 93 73 119 102 27 30
53 54 57 54 4 0 42 -13 83 -29 134 -52 333 -113 341 -105 4 5 10 21 14 36 5
23 -2 38 -48 91 -30 35 -61 77 -69 94 -9 16 -29 44 -45 61 -17 18 -39 48 -51
67 l-21 36 68 63 c37 35 91 86 121 114 29 28 77 66 105 86 l51 35 95 -15 c52
-7 113 -14 135 -14 22 0 73 -10 113 -22 89 -28 93 -44 20 -88 -29 -17 -69 -41
-88 -53 -31 -20 -49 -22 -170 -22 -74 0 -176 4 -227 9 l-91 8 0 -50 c-1 -56 6
-64 63 -80 83 -22 180 -56 268 -95 46 -21 99 -54 131 -83 133 -122 168 -138
174 -77 3 28 -7 42 -77 114 -44 46 -79 85 -77 87 2 2 41 -4 87 -12 120 -22
409 -37 664 -35 207 1 227 3 340 31 142 35 155 42 155 71 0 46 -12 50 -86 28
-80 -24 -273 -53 -289 -43 -5 4 -134 5 -285 4 -264 -3 -536 10 -553 27 -4 4
17 21 48 37 36 18 68 43 86 69 49 68 75 96 93 99 10 1 21 9 26 16 9 14 37 18
370 54 80 9 176 20 215 25 69 8 135 -1 135 -18 0 -5 13 -17 29 -28 16 -10 51
-37 77 -60 104 -90 146 -123 199 -155 32 -19 55 -40 55 -50 0 -9 5 -18 12 -20
7 -3 -3 -20 -24 -44 -19 -21 -51 -64 -70 -94 -19 -30 -54 -77 -78 -105 -44
-51 -84 -130 -74 -146 15 -25 190 5 289 51 22 10 71 33 108 50 38 18 70 30 71
28 2 -1 9 -14 16 -28 29 -57 132 -227 154 -255 13 -16 27 -27 31 -23 12 12 24
80 30 182 5 90 37 260 54 294 10 18 113 82 133 82 29 0 196 120 213 153 19 37
12 43 -60 52 -27 4 -72 13 -99 21 -27 8 -63 14 -78 14 -48 0 -166 30 -188 48
-20 16 -20 21 -10 132 6 63 11 133 12 155 0 23 6 48 12 56 12 15 114 81 183
118 l42 22 15 -35 c8 -19 48 -79 88 -133 86 -114 141 -194 266 -390 49 -77
125 -184 168 -238 44 -53 78 -102 76 -110 -4 -23 138 -94 174 -87 7 1 22 -9
35 -23 44 -47 141 -125 155 -125 17 0 -35 99 -83 160 -15 19 -28 44 -28 55 0
28 -57 185 -67 185 -4 0 -8 -5 -8 -10 0 -6 -11 -3 -24 5 -28 19 -96 109 -264
352 -144 208 -168 245 -233 358 -38 66 -75 128 -82 137 -13 19 -2 30 59 64
l31 17 36 -39 c20 -21 37 -47 37 -56 0 -9 9 -20 20 -23 11 -4 27 -23 36 -43
27 -65 52 -84 109 -81 27 1 55 6 62 11 17 14 62 -19 56 -40 -8 -32 111 -162
184 -200 53 -28 108 3 106 60 -1 44 -44 113 -83 133 -16 8 -48 33 -70 56 -22
22 -45 37 -51 33 -14 -8 -59 15 -59 31 0 7 6 18 14 24 9 8 12 25 8 56 -2 25
-1 45 3 45 4 0 27 -18 51 -40 49 -45 59 -48 67 -20 5 21 -19 54 -120 163 -50
54 -81 58 -68 9 12 -44 17 -162 8 -162 -14 0 -93 110 -93 129 0 32 -15 44 -40
31 -19 -10 -26 -8 -51 16 -16 15 -29 33 -29 39 0 6 31 41 69 79 57 57 73 68
93 62 12 -3 69 -50 124 -104 92 -88 212 -182 233 -182 4 0 16 9 26 20 10 11
22 17 26 14 5 -3 9 0 9 5 0 12 47 15 52 4 2 -5 23 -24 48 -42 25 -19 76 -62
113 -95 56 -49 68 -65 64 -84 -4 -20 26 -54 175 -205 l180 -182 -6 -120 c-4
-66 -9 -153 -12 -193 -7 -82 4 -109 37 -91 11 5 73 14 138 18 119 8 141 13
141 32 0 24 -64 37 -145 29 -121 -13 -115 -14 -115 23 0 19 4 58 10 88 5 30
12 70 15 90 3 20 16 48 28 61 13 14 29 40 37 57 7 18 44 64 82 102 38 39 73
81 78 93 7 18 29 30 102 54 51 17 113 38 137 47 74 27 76 24 77 -93 1 -104 12
-138 35 -115 15 15 13 292 -2 310 -7 8 -17 10 -28 4 -27 -15 -163 -61 -179
-61 -8 0 -44 -14 -79 -30 -106 -50 -105 -51 -290 97 -144 115 -228 172 -238
162 -18 -18 -51 -9 -81 22 -16 17 -71 67 -122 112 -102 89 -104 94 -71 174
l13 32 -86 83 c-47 46 -113 109 -147 140 -33 32 -61 63 -61 70 0 7 21 28 46
47 25 19 82 86 130 153 47 65 87 118 90 118 3 0 35 -18 71 -40 58 -35 75 -40
125 -40 84 0 128 25 178 103 22 34 41 66 43 71 2 5 55 10 118 11 124 2 160 13
178 52 8 17 17 23 28 19 35 -14 160 -29 185 -23 19 5 35 25 61 74 44 84 97
217 97 243 0 20 -76 83 -138 115 -25 12 -41 32 -62 78 -16 34 -47 86 -69 116
-23 29 -41 62 -41 72 0 11 -22 42 -50 70 -27 27 -50 54 -50 58 0 12 79 21 185
21 98 0 144 11 187 44 14 12 45 34 67 50 23 17 41 35 41 40 0 17 296 294 385
360 28 21 88 79 134 129 47 51 108 109 138 130 53 38 67 68 40 84 -8 4 -28 28
-46 53 -32 44 -115 120 -132 120 -4 0 -27 21 -51 47 -84 91 -161 168 -185 184
-13 9 -58 49 -101 89 -42 40 -93 88 -114 107 l-36 35 -374 0 c-235 0 -351 3
-313 8 69 10 112 24 137 47 25 22 22 33 -8 33 -14 0 -23 4 -19 9 3 5 -19 20
-48 34 -32 14 -65 40 -83 63 -51 66 -142 211 -180 287 -19 39 -40 77 -46 84
-5 7 -8 20 -4 29 3 8 1 25 -5 36 -6 11 -8 22 -5 25 6 7 125 -40 171 -68 24
-14 129 -39 167 -39 4 0 10 -21 13 -47 11 -85 16 -103 30 -103 14 0 49 65 60
112 6 21 14 28 46 33 39 7 69 -5 69 -27 0 -13 53 -97 61 -98 3 0 9 27 13 61 3
33 8 65 11 69 3 5 27 12 53 15 26 4 74 15 107 26 33 10 62 18 65 17 3 -1 15 4
28 11 19 10 28 10 47 -3 14 -9 35 -16 49 -16 22 0 24 3 19 40 -6 45 1 54 68
90 36 19 36 19 56 -2 28 -27 46 -16 32 20 -9 23 -7 30 15 49 14 12 32 26 39
30 22 14 66 78 97 142 l30 61 47 0 c27 0 55 5 63 11 13 8 11 12 -10 27 -66 46
-74 57 -59 83 7 13 20 58 29 99 l16 75 42 3 c23 2 42 6 42 11 0 4 -17 24 -39
45 -35 34 -39 43 -45 109 -3 40 -7 79 -8 87 -1 8 0 34 0 57 2 39 5 44 37 57
19 8 35 18 35 22 0 11 -34 33 -51 34 -11 0 -20 15 -28 44 -15 62 -15 64 19 71
32 7 58 39 40 50 -5 3 -18 1 -29 -5 -49 -26 -63 -15 -118 94 l-52 104 60 37
c50 31 59 41 59 65 0 51 -28 55 -106 14 l-68 -36 -51 55 c-48 53 -142 116
-195 132 -14 4 -43 17 -65 28 l-39 20 29 23 c28 22 29 24 12 41 -16 16 -19 15
-51 -16 l-34 -33 -126 51 c-70 28 -137 51 -150 51 -20 0 -25 8 -35 58 -19 83
-19 84 -38 80 -14 -2 -19 -16 -23 -63 l-5 -60 -65 3 c-42 1 -92 -5 -140 -18
-70 -19 -76 -19 -85 -3 -5 10 -25 33 -43 51 -52 55 -73 16 -37 -70 5 -12 -2
-21 -27 -34 -18 -9 -54 -32 -81 -50 -26 -19 -49 -34 -51 -34 -2 0 -20 16 -39
35 -19 19 -43 35 -52 35 -15 0 -17 -7 -12 -47 2 -27 8 -55 11 -65 6 -12 -5
-24 -39 -48 -40 -28 -50 -30 -78 -22 -67 21 -77 21 -87 1 -11 -20 11 -79 30
-79 15 0 12 -26 -5 -40 -8 -6 -31 -37 -51 -67 l-36 -55 -48 7 c-60 8 -72 -6
-35 -45 29 -30 28 -47 -3 -88 -17 -22 -19 -22 -47 -8 -17 9 -35 16 -42 16 -9
0 -9 10 2 40 l14 40 -37 -17 c-69 -30 -126 -38 -186 -24 -68 15 -87 37 -117
134 -25 80 -47 116 -69 117 -8 0 -44 -14 -78 -30 -35 -17 -69 -30 -75 -30 -7
0 -19 -12 -28 -28 -33 -54 -90 -147 -94 -150 -2 -2 -10 0 -17 4 -7 5 -29 14
-48 20 l-35 11 27 11 c33 14 78 89 90 150 10 55 -2 99 -37 132 -20 19 -31 22
-72 17 -26 -3 -57 -8 -69 -12 -20 -6 -21 -1 -34 127 -7 73 -12 137 -11 143 1
5 16 8 34 6 40 -4 36 1 -60 59 -43 26 -114 69 -158 95 -214 130 -293 183 -332
222 -23 23 -72 62 -110 87 -116 76 -109 63 -118 216 -4 74 -9 170 -11 214 -3
96 -7 106 -39 106 -31 0 -48 -36 -43 -90 3 -34 2 -35 -32 -35 l-35 0 -10 141
c-12 163 -25 193 -69 161z m-1073 -649 c45 -28 93 -58 107 -66 28 -17 39 -6
-98 -98 -46 -31 -87 -53 -90 -49 -9 9 -16 265 -7 265 3 0 43 -23 88 -52z
m1324 -30 c-3 -8 -6 -5 -6 6 -1 11 2 17 5 13 3 -3 4 -12 1 -19z m28 -104 l24
-15 -3 -257 c-2 -141 -7 -265 -11 -275 -4 -10 -13 -16 -21 -13 -7 3 -14 0 -16
-6 -3 -7 -10 -8 -17 -3 -11 6 -12 46 -7 194 9 255 19 441 24 413 2 -12 14 -29
27 -38z m80 -36 c14 -6 25 -14 25 -17 0 -3 5 -49 12 -101 14 -120 17 -450 3
-450 -5 0 -29 8 -53 17 l-44 16 8 71 c5 39 7 158 6 265 -1 175 1 211 13 211 2
0 16 -5 30 -12z m115 -30 c0 -12 -12 -9 -32 6 -26 19 -22 27 7 14 14 -6 25
-15 25 -20z m-1991 -242 l3 -254 -41 -21 -41 -21 0 87 c0 49 -4 102 -9 118 -4
17 -12 92 -16 168 l-7 137 43 20 c24 11 49 20 54 20 6 0 11 -94 14 -254z
m1964 222 c24 -22 25 -29 36 -248 6 -124 14 -244 18 -267 5 -38 3 -43 -13 -43
-11 0 -29 7 -41 15 -20 14 -21 22 -21 197 0 101 -5 212 -11 248 -20 121 -14
140 32 98z m-2103 7 c0 -2 -10 -9 -22 -15 -22 -11 -22 -10 -4 4 21 17 26 19
26 11z m2181 -22 c13 -15 12 -15 -8 -4 -24 12 -29 21 -14 21 5 0 15 -7 22 -17z
m-2167 -49 c3 -26 6 -70 6 -99 0 -28 7 -100 15 -159 19 -137 12 -209 -22 -225
-33 -15 -33 -15 -33 22 0 40 -17 199 -36 334 -19 137 -19 137 19 156 44 22 44
22 51 -29z m2183 8 c21 -16 24 -32 38 -197 8 -98 15 -217 15 -262 0 -89 -6
-98 -47 -65 -29 23 -40 105 -49 350 -8 207 -6 213 43 174z m-2284 -34 c11 -45
58 -469 53 -474 0 -1 -59 -22 -131 -47 -71 -24 -187 -68 -257 -97 -70 -29
-133 -50 -141 -47 -10 4 -16 38 -21 134 -4 70 -10 144 -15 164 -7 31 -5 42 14
65 l22 28 6 -35 c3 -19 11 -81 18 -139 6 -58 15 -109 20 -114 12 -13 11 1 -10
184 -14 113 -15 157 -7 162 30 18 155 102 185 123 19 14 38 25 43 25 9 0 -56
-59 -102 -93 -24 -17 -24 -18 -3 -14 27 6 27 5 48 -143 26 -190 34 -233 46
-244 9 -8 10 -2 5 24 -4 19 -16 96 -27 170 -10 74 -22 153 -25 175 -6 38 -4
42 34 73 23 17 43 32 45 32 2 0 7 -35 10 -77 20 -239 29 -319 39 -328 7 -7 9
6 4 45 -4 30 -11 105 -16 165 -5 61 -12 129 -15 153 -6 38 -3 45 25 74 18 17
35 27 40 22 7 -8 34 -213 49 -381 7 -75 21 -111 21 -52 0 29 -15 165 -46 412
-6 46 -5 47 28 62 46 20 55 19 61 -7z m2391 -25 c28 -15 94 -51 146 -81 l95
-54 0 -229 c0 -126 3 -229 6 -229 13 0 18 107 12 270 -4 100 -2 170 3 170 26
-1 50 -28 52 -60 2 -19 8 -64 13 -100 14 -102 11 -236 -6 -277 -8 -19 -15 -48
-15 -64 0 -16 -5 -29 -10 -29 -15 0 -84 35 -171 88 l-77 45 -7 250 c-4 153
-11 244 -16 236 -5 -8 -6 -112 -3 -241 4 -134 3 -228 -2 -228 -5 0 -19 8 -32
18 -22 17 -23 27 -32 207 -5 105 -12 223 -16 263 -3 39 -3 72 1 72 4 0 30 -12
59 -27z m2126 -265 c0 -7 -9 -26 -20 -43 -11 -16 -20 -38 -20 -47 0 -30 -17
-20 -50 26 l-30 45 47 14 c62 19 73 20 73 5z m130 2 c0 -16 -32 -90 -39 -90
-9 1 -40 45 -51 74 -9 26 -9 26 40 26 28 0 50 -4 50 -10z m168 -35 c7 -6 -52
-80 -64 -80 -5 0 -10 22 -12 49 l-3 49 37 -6 c20 -3 39 -9 42 -12z m192 -62
c0 -7 -4 -13 -8 -13 -5 0 -27 -16 -49 -35 -23 -19 -43 -35 -46 -35 -3 0 -10
24 -17 52 -6 29 -13 63 -16 75 l-6 21 71 -26 c39 -15 71 -32 71 -39z m-451 10
c6 -21 11 -41 11 -44 0 -8 -51 -22 -57 -16 -7 7 19 97 28 97 4 0 13 -17 18
-37z m150 -8 c6 -24 19 -49 29 -55 13 -7 3 -9 -38 -4 -85 9 -85 9 -48 58 18
25 36 45 39 46 4 0 12 -20 18 -45z m-385 27 c2 -4 7 -25 11 -47 l6 -40 -31 37
c-22 26 -36 35 -53 32 -16 -3 -14 0 8 10 34 17 52 19 59 8z m540 -43 c12 -63
10 -67 -36 -63 -23 2 -43 6 -46 8 -5 5 60 86 69 86 4 0 9 -14 13 -31z m-431
-10 c33 -34 30 -40 -25 -53 -27 -6 -28 -5 -28 39 0 53 10 56 53 14z m-224 -61
c2 -18 -25 -5 -43 19 -19 25 -19 26 0 40 17 12 20 11 31 -19 6 -18 12 -36 12
-40z m961 28 l45 -21 -64 -3 c-71 -3 -83 3 -74 36 6 25 16 24 93 -12z m-873
-9 c13 -12 30 -17 43 -14 11 3 20 2 20 -2 0 -8 -121 -63 -127 -57 -2 1 2 26 8
54 13 53 17 55 56 19z m733 11 c0 -15 -14 -33 -40 -51 -37 -26 -60 -29 -60 -7
0 6 88 79 98 80 1 0 2 -10 2 -22z m-318 -19 c29 -6 73 -17 98 -24 25 -8 58
-16 73 -19 54 -9 59 -22 27 -74 -48 -79 -69 -172 -74 -321 -5 -153 4 -140
-126 -197 -47 -21 -102 -49 -124 -62 -21 -13 -142 -75 -269 -139 -127 -63
-268 -139 -314 -169 l-83 -55 -42 33 c-24 18 -47 38 -51 43 -10 13 -2 225 13
330 12 84 75 234 127 304 14 18 37 54 50 80 25 47 80 111 96 111 5 0 16 9 25
20 21 25 213 105 312 130 86 21 185 25 262 9z m-643 -60 c14 -41 15 -39 -18
-39 -16 0 -35 7 -42 16 -11 14 -9 19 11 35 33 25 36 24 49 -12z m109 6 l36
-16 -43 -24 c-24 -14 -45 -25 -47 -25 -2 0 -4 18 -4 40 0 45 5 47 58 25z
m-1330 -87 c22 -22 14 -57 -13 -64 -35 -9 -55 2 -55 29 0 27 17 47 40 47 9 0
21 -5 28 -12z m1199 0 c18 -7 33 -15 33 -18 0 -9 -69 -75 -73 -69 -1 2 -10 25
-19 52 -17 47 -17 47 4 47 12 0 37 -5 55 -12z m-109 -51 c21 -31 22 -32 3 -35
-10 -2 -33 1 -51 5 l-32 8 22 28 c12 15 24 27 28 27 4 0 17 -15 30 -33z m1291
-18 c28 -22 51 -44 51 -47 0 -18 -198 -152 -223 -152 -3 0 -4 34 -2 76 4 78
18 113 59 146 32 27 59 22 115 -23z m191 15 c9 -9 10 -14 2 -14 -6 0 -9 -7 -6
-15 5 -11 2 -14 -12 -9 -19 7 -53 43 -54 57 0 11 53 -3 70 -19z m-1540 -133
c0 -14 -21 -14 -54 -1 -30 11 -32 22 -10 56 l17 25 23 -35 c13 -19 24 -40 24
-45z m110 44 c0 -6 -13 -26 -30 -45 -22 -27 -29 -31 -30 -17 0 10 -7 31 -15
48 l-16 30 46 -3 c25 -2 45 -8 45 -13z m-5124 -19 c11 -8 33 -39 48 -70 47
-93 31 -194 -51 -308 l-34 -47 16 -67 c14 -62 14 -68 -1 -86 -15 -16 -19 -16
-33 -4 -26 22 -78 46 -102 46 -13 0 -48 -20 -79 -44 -87 -68 -149 -98 -189
-92 -44 7 -155 80 -170 112 -14 32 1 64 32 64 12 0 39 -11 59 -25 104 -71 147
-56 336 114 46 41 88 84 92 96 4 12 22 43 39 70 17 27 31 55 31 62 0 8 -20 36
-45 62 -51 54 -54 67 -24 105 23 29 45 33 75 12z m6493 -89 c6 -19 20 -51 31
-72 11 -21 17 -42 14 -47 -3 -5 1 -17 9 -26 25 -29 76 -289 61 -314 -2 -4 -9
-33 -15 -65 -18 -100 -50 -194 -100 -294 -38 -77 -63 -112 -125 -173 -133
-134 -262 -220 -384 -257 -61 -18 -98 -23 -200 -23 -166 0 -173 3 -350 113
-31 19 3 25 83 13 46 -7 130 -12 187 -12 95 0 109 3 174 32 39 17 85 42 102
54 59 43 133 226 134 331 0 23 7 75 15 115 9 40 20 134 26 208 16 235 10 220
129 308 41 31 99 75 128 99 29 24 57 43 62 43 4 0 13 -15 19 -33z m-1579 -41
c16 -25 26 -47 22 -50 -7 -4 -91 20 -100 29 -6 5 31 65 40 65 4 0 21 -20 38
-44z m130 37 c0 -21 -26 -73 -36 -73 -7 0 -21 18 -32 40 l-19 40 43 0 c24 0
44 -3 44 -7z m1580 -64 c57 -12 57 -24 -2 -39 -43 -12 -52 -8 -63 28 -7 25 -4
26 65 11z m-1854 -65 c18 -34 18 -86 -1 -156 -8 -31 -16 -84 -17 -117 -3 -91
-16 -86 -196 75 l-24 21 46 64 c26 35 65 90 87 122 l40 58 26 -21 c14 -11 32
-32 39 -46z m205 -46 c-9 -38 -20 -66 -26 -65 -13 4 -75 85 -75 98 0 5 22 9
49 9 36 0 51 4 55 16 14 37 13 5 -3 -58z m1768 35 c15 -51 14 -53 -11 -53 -27
0 -128 41 -128 52 0 8 84 36 112 37 11 1 20 -11 27 -36z m-1849 -132 c0 -6
-17 -13 -37 -16 -21 -3 -47 -11 -57 -17 -18 -9 -18 -7 -12 53 4 35 10 68 13
73 7 10 93 -76 93 -93z m-7179 58 l98 -30 -1 -35 c-1 -23 6 -42 20 -57 12 -13
22 -29 22 -36 0 -22 40 -72 168 -209 124 -132 124 -133 106 -153 -24 -26 -67
-49 -92 -49 -25 0 -104 90 -182 205 -19 28 -57 79 -84 115 -28 36 -58 79 -66
95 -27 52 -110 39 -110 -18 0 -11 30 -68 66 -126 100 -159 115 -180 171 -245
28 -34 49 -65 46 -69 -3 -5 -10 -4 -16 2 -15 15 -60 14 -75 -1 -7 -7 -12 -26
-12 -42 l0 -30 -41 39 c-59 57 -120 135 -113 146 3 5 -7 25 -21 44 -26 34 -83
159 -91 201 -2 12 -13 41 -23 65 -26 58 -35 111 -27 154 14 72 100 83 257 34z
m8945 15 c27 -9 53 -20 58 -24 7 -7 -74 -50 -94 -50 -4 0 -11 12 -14 28 -4 15
-9 35 -12 45 -7 21 0 21 62 1z m-8623 -89 c117 -33 337 -128 337 -146 0 -4
-18 -42 -40 -85 -22 -43 -40 -80 -40 -81 0 -1 7 0 15 3 39 15 85 -82 53 -114
-16 -16 -69 -15 -94 2 -20 14 -32 76 -15 76 5 0 -46 56 -113 123 -140 141
-226 247 -200 247 3 0 46 -11 97 -25z m8713 -61 c-6 -23 -8 -24 -34 -10 -16 8
-34 22 -41 30 -12 14 -7 18 30 34 l44 19 3 -25 c2 -13 1 -35 -2 -48z m-1799
19 c-3 -10 -8 -39 -12 -65 -3 -27 -10 -48 -14 -48 -4 0 -17 11 -28 24 -11 13
-39 34 -62 47 -22 12 -41 26 -41 30 0 5 17 11 38 14 20 4 42 8 47 10 6 2 25 4
43 4 27 1 32 -2 29 -16z m1019 -100 c-4 -76 -35 -289 -58 -405 -10 -48 -20
-65 -58 -102 -51 -50 -126 -78 -187 -70 -154 20 -264 59 -338 119 l-30 25 62
59 c34 32 93 80 130 105 37 26 95 69 128 96 33 27 84 67 112 87 29 21 92 66
140 101 48 34 90 62 95 62 4 0 6 -35 4 -77z m698 30 c-25 -18 -31 -16 -36 12
-7 33 0 37 29 18 24 -16 24 -17 7 -30z m-1860 12 c9 -14 33 -32 54 -42 l37
-16 -55 -8 c-30 -4 -58 -5 -62 -3 -11 7 -10 94 1 94 5 0 16 -11 25 -25z m1957
-63 c0 -9 2 -25 4 -34 2 -10 -1 -20 -6 -23 -10 -7 -99 51 -99 64 0 4 15 13 33
18 37 11 67 1 68 -25z m-1833 -70 c3 -40 -10 -57 -21 -28 -3 8 -29 22 -57 31
-28 9 -49 19 -47 22 6 6 99 21 112 18 6 -1 11 -20 13 -43z m1776 7 c79 -56 74
-73 -23 -77 -72 -3 -73 -3 -67 20 3 13 9 40 12 61 4 20 10 37 14 37 4 0 32
-18 64 -41z m-7919 -100 c167 -85 360 -215 463 -312 126 -118 122 -105 69
-190 -25 -40 -70 -119 -101 -177 -79 -145 -92 -167 -143 -235 -25 -33 -53 -76
-63 -95 -26 -51 -44 -64 -77 -55 -16 4 -39 8 -53 9 -14 2 -37 10 -50 18 -60
37 -221 118 -285 143 -114 45 -114 44 -69 65 22 9 57 32 79 49 47 38 54 37
161 -24 43 -25 84 -45 90 -45 6 0 38 -11 72 -25 50 -20 66 -23 86 -14 35 16
41 53 15 95 -23 38 -207 154 -243 154 -48 1 -49 15 -6 76 23 32 44 59 48 59 4
0 41 -16 82 -36 41 -20 109 -47 150 -59 41 -12 92 -27 113 -33 27 -8 43 -8 55
-1 25 16 27 60 3 90 -12 15 -21 33 -21 40 0 21 -35 39 -150 79 -143 49 -137
44 -113 97 11 23 28 66 38 93 17 48 17 51 -1 90 -17 35 -23 40 -54 40 -31 0
-37 -5 -67 -55 -18 -30 -42 -74 -53 -97 -12 -24 -23 -43 -25 -43 -3 0 -28 15
-57 33 -29 19 -99 58 -155 87 -70 36 -103 59 -103 71 0 9 11 41 25 71 15 32
25 71 25 99 0 25 5 50 11 56 14 14 144 -37 304 -118z m7885 -101 c0 -4 -22 -8
-50 -8 -27 0 -50 3 -50 6 0 4 5 24 12 46 l11 39 39 -38 c21 -20 38 -41 38 -45z
m80 50 c0 -61 -12 -64 -68 -22 -28 22 -51 42 -51 47 -1 4 26 7 59 7 l60 0 0
-32z m-4385 -18 c177 -14 246 -28 391 -76 148 -49 566 -254 630 -308 22 -18
95 -73 164 -121 193 -136 269 -209 364 -355 88 -133 168 -293 191 -380 l14
-53 -67 7 c-137 14 -341 25 -457 25 -66 -1 -142 0 -170 2 -100 7 -267 4 -570
-10 -306 -13 -647 -12 -1490 6 -385 9 -605 9 -852 3 -105 -3 -194 -2 -198 1
-8 9 43 122 87 190 19 30 40 71 47 90 6 20 25 49 42 65 17 16 40 47 51 69 11
22 35 58 53 80 18 22 48 65 68 95 52 81 318 341 397 388 163 97 274 154 345
180 88 31 223 69 275 77 62 10 376 32 480 34 47 0 139 -4 205 -9z m4365 -70
c0 -10 -17 -48 -26 -59 -2 -2 -25 9 -51 25 -46 27 -47 28 -23 34 46 11 100 11
100 0z m-66 -84 c44 -28 20 -39 -67 -31 -87 8 -98 20 -66 71 l21 34 41 -28
c23 -16 55 -37 71 -46z m-8231 -77 c56 -34 126 -77 155 -97 l53 -36 -51 -48
c-27 -27 -50 -54 -50 -60 0 -6 -10 -8 -22 -5 -21 6 -22 5 -5 -7 10 -8 22 -27
26 -43 11 -37 -9 -52 -78 -60 -36 -4 -51 -1 -64 12 -35 35 -11 82 52 101 l34
9 -29 15 c-43 22 -164 110 -164 120 0 4 -15 18 -34 31 l-35 24 52 52 c29 28
53 52 55 52 1 1 49 -27 105 -60z m8061 -14 c24 -37 20 -44 -20 -35 -47 11 -51
16 -29 40 23 26 29 25 49 -5z m165 9 c5 -5 -16 -74 -28 -94 -8 -11 -18 -5 -53
34 -68 77 -68 76 9 69 37 -3 70 -7 72 -9z m-252 -115 c2 -22 8 -49 14 -60 18
-35 2 -33 -45 7 l-46 38 32 33 c17 18 34 30 37 27 3 -3 7 -23 8 -45z m125 -3
c20 -9 44 -13 52 -10 9 3 16 1 16 -5 0 -17 -41 -56 -79 -75 l-32 -17 -13 33
c-8 18 -17 50 -21 71 -8 42 -13 42 77 3z m-8492 -1 c58 -2 69 -8 194 -109 23
-19 59 -42 80 -53 l39 -20 -47 -23 c-26 -12 -53 -31 -59 -41 -7 -11 -15 -19
-19 -19 -21 0 -327 251 -328 268 0 11 10 12 43 6 23 -4 67 -8 97 -9z m7260
-80 c0 -3 -9 -5 -20 -5 -11 0 -20 7 -20 15 0 13 4 14 20 5 11 -6 20 -13 20
-15z m994 9 c3 -9 6 -24 6 -35 0 -16 -5 -18 -27 -13 -59 12 -60 14 -28 40 35
28 41 29 49 8z m92 -40 c24 -19 44 -38 44 -42 0 -6 -42 -35 -71 -50 -5 -2 -29
96 -29 120 0 15 12 9 56 -28z m-1042 -30 c10 -78 9 -86 -13 -75 -15 9 -51 76
-51 97 0 4 38 22 51 23 4 1 9 -20 13 -45z m852 -40 c-7 -18 -21 -18 -40 2 -22
21 -20 27 12 46 27 17 27 17 30 -8 2 -14 1 -32 -2 -40z m-765 25 c17 -17 29
-32 28 -33 -2 -2 -18 -11 -35 -19 -31 -16 -32 -16 -31 6 1 12 -2 34 -6 50 -10
36 5 35 44 -4z m872 -26 c23 -21 22 -28 -9 -48 -24 -16 -27 -16 -45 1 -10 9
-19 30 -19 47 0 27 2 29 28 22 15 -3 35 -14 45 -22z m-216 -64 c-4 -29 -9 -54
-12 -57 -3 -3 -24 13 -47 35 l-41 42 34 14 c19 9 43 16 53 16 17 1 18 -4 13
-50z m-468 5 c5 -5 -40 -54 -50 -54 -7 0 -29 54 -29 71 0 7 70 -8 79 -17z
m-110 -14 c8 -25 7 -30 -5 -30 -9 0 -24 5 -35 11 -20 10 -20 11 -3 30 23 26
30 24 43 -11z m667 14 c19 -9 37 -20 39 -25 6 -8 -32 -31 -72 -43 -22 -7 -23
-4 -23 38 0 51 5 54 56 30z m-220 -31 c-3 -21 -6 -46 -6 -55 0 -29 -38 -21
-54 10 -8 16 -22 34 -30 41 -31 26 -14 35 68 40 28 1 28 0 22 -36z m-163 20
c3 -5 -2 -29 -10 -55 -11 -41 -17 -48 -39 -48 -26 0 -35 15 -49 78 l-7 32 51
0 c27 0 52 -3 54 -7z m239 -50 c26 -23 22 -33 -12 -33 -25 0 -30 4 -30 25 0
29 16 32 42 8z m-372 -13 c9 -18 8 -20 -15 -20 -24 0 -34 18 -18 33 11 12 22
8 33 -13z m208 -35 c-3 -4 -17 -5 -31 -3 -21 3 -23 6 -15 27 l9 25 21 -22 c12
-12 19 -24 16 -27z m-4885 -572 c-29 -2 -78 -2 -110 0 -32 2 -8 3 52 3 61 0
87 -1 58 -3z m3167 -3 c0 -5 -2 -10 -4 -10 -3 0 -8 5 -11 10 -3 6 -1 10 4 10
6 0 11 -4 11 -10z m-4240 -321 c0 -29 5 -38 23 -44 19 -6 19 -8 5 -12 -13 -3
-18 -15 -18 -39 0 -28 4 -35 25 -40 14 -3 36 -3 50 0 21 5 25 12 25 41 0 30
-3 35 -24 35 -14 0 -28 5 -31 10 -4 6 6 10 23 10 19 0 32 6 37 18 6 16 7 16
16 1 7 -13 22 -16 72 -15 35 2 68 6 75 9 6 4 14 2 17 -4 5 -7 74 -10 224 -8
239 3 252 1 303 -61 14 -17 28 -27 32 -22 3 5 51 8 107 6 56 -1 124 1 151 5
38 6 51 5 55 -5 7 -18 41 -18 59 0 22 23 17 46 -10 46 -14 0 -28 5 -31 10 -4
6 6 10 22 10 16 0 34 5 40 11 7 7 73 10 191 9 193 -1 192 -1 192 51 0 11 5 17
10 14 6 -3 10 -20 10 -36 l0 -30 113 2 c62 1 118 0 123 -2 8 -4 24 -4 65 0 10
0 19 14 23 32 7 35 26 30 26 -7 0 -24 2 -24 70 -22 66 1 70 3 70 25 0 13 5 23
10 23 6 0 10 -11 10 -25 0 -22 5 -25 33 -25 17 0 39 -5 47 -10 11 -7 2 -10
-33 -10 l-48 0 3 -37 c2 -21 8 -41 13 -45 6 -4 45 -5 87 -1 43 3 83 2 90 -3
15 -11 112 -11 151 0 22 7 27 14 27 41 0 26 -5 35 -22 41 -22 7 -22 7 -3 14
25 9 263 13 277 4 14 -9 -11 -24 -39 -24 -19 0 -23 -6 -23 -29 0 -23 5 -30 28
-35 15 -3 37 -8 50 -12 21 -6 22 -4 22 69 0 41 3 82 6 91 12 30 24 5 24 -49
l0 -54 34 23 c22 15 44 22 59 19 19 -4 26 1 32 19 l8 23 4 -23 5 -23 259 2
c143 1 262 6 265 10 11 19 24 -3 24 -40 0 -21 3 -53 6 -70 6 -27 11 -31 39
-31 42 0 56 -27 17 -33 -21 -3 -19 -4 11 -6 20 0 40 -1 45 -1 4 0 7 4 7 9 0
18 16 25 25 11 7 -10 10 -11 10 -2 0 6 5 12 11 12 5 0 7 -5 4 -10 -4 -7 4 -10
22 -7 17 2 33 13 40 28 7 13 13 21 14 17 1 -5 2 -12 3 -17 2 -18 16 -24 16 -8
0 20 1 20 34 7 20 -7 26 -6 26 4 0 8 6 17 13 20 6 3 1 3 -12 0 -16 -4 -21 -3
-17 5 4 6 25 11 46 11 33 0 42 5 57 31 10 17 32 39 50 50 30 19 51 20 315 21
198 0 285 4 291 12 6 8 10 8 14 -1 2 -7 20 -13 39 -13 19 0 34 -4 34 -10 0 -5
-16 -10 -35 -10 -34 0 -35 -1 -35 -40 0 -38 1 -40 33 -41 17 0 53 -3 80 -5 30
-4 47 -1 47 6 0 7 6 8 18 1 15 -8 40 -8 118 -2 7 1 24 30 39 66 32 73 62 109
53 63 l-5 -28 63 0 c60 0 64 1 79 30 19 37 27 38 23 3 -3 -27 -1 -28 47 -31
27 -2 65 -1 83 3 27 5 32 10 27 26 -9 28 14 23 25 -6 8 -22 15 -25 62 -25 29
0 60 -5 68 -10 11 -7 -2 -10 -42 -10 -32 0 -58 -2 -58 -5 0 -2 5 -27 11 -55 7
-34 14 -48 22 -43 20 13 60 2 91 -24 28 -23 30 -23 39 -6 15 28 16 28 33 7 14
-17 15 -13 11 53 -3 54 -1 76 9 84 8 6 14 19 15 28 0 9 5 3 11 -12 7 -19 15
-26 25 -23 8 3 35 6 59 6 40 0 44 2 44 24 0 35 17 41 24 9 l6 -28 268 0 c147
0 280 -4 297 -8 28 -8 29 -9 10 -20 -19 -11 -19 -11 5 -18 14 -4 41 -7 61 -8
115 -3 223 -107 199 -192 -10 -35 -89 -138 -107 -139 -6 0 -21 -13 -32 -29
-12 -16 -32 -32 -46 -35 -14 -4 -25 -11 -25 -16 0 -6 -7 -10 -15 -10 -8 0 -15
-5 -15 -10 0 -23 -100 -44 -128 -26 -7 4 -12 3 -12 -3 0 -5 -12 -11 -27 -13
-17 -2 -32 -12 -38 -25 -11 -27 -21 -29 -29 -8 -4 11 -21 15 -67 15 -50 0 -60
3 -55 15 4 12 -3 15 -34 15 -22 0 -40 -4 -40 -9 0 -5 -9 -11 -19 -14 -14 -3
-18 -1 -14 9 3 8 -1 14 -11 14 -9 0 -16 -8 -16 -19 0 -11 -4 -23 -10 -26 -5
-3 -10 -2 -10 3 0 5 -20 9 -44 8 -34 -1 -42 -4 -34 -13 7 -9 7 -13 -1 -13 -15
0 -14 -33 1 -48 18 -18 -8 -33 -52 -30 -19 1 -44 -3 -55 -10 -11 -6 -16 -12
-12 -12 4 0 2 -6 -5 -14 -11 -11 -18 -11 -45 0 -46 20 -61 17 -66 -8 -3 -20
-6 -19 -20 15 l-17 37 -69 0 c-47 0 -71 -4 -74 -12 -3 -10 -7 -10 -18 -2 -11
9 -80 23 -124 25 -16 1 -123 -10 -202 -20 -44 -5 -88 -5 -113 0 -24 5 -48 6
-58 0 -9 -4 -32 -8 -49 -6 -18 1 -33 -2 -33 -8 0 -5 -7 -7 -15 -3 -10 3 -20
-5 -30 -24 -19 -36 -29 -39 -23 -5 5 22 1 25 -41 30 -25 3 -56 7 -69 9 -12 2
-25 -1 -28 -6 -4 -6 -10 -5 -15 3 -6 10 -13 10 -33 1 -16 -7 -28 -8 -31 -2
-10 15 -395 13 -395 -2 0 -9 -3 -9 -12 0 -7 7 -22 12 -34 12 -12 0 -36 11 -53
25 -28 24 -34 25 -98 19 -59 -6 -66 -5 -56 8 11 12 8 14 -17 10 -17 -2 -30 -8
-30 -13 0 -5 -13 -9 -30 -9 -16 0 -30 5 -30 10 0 6 -7 10 -16 10 -8 0 -12 5
-8 11 5 8 -6 9 -37 3 -24 -4 -64 -8 -88 -8 -57 -1 -64 -21 -11 -30 48 -7 44
-26 -5 -26 -18 0 -35 -6 -38 -12 -3 -10 -7 -10 -18 -1 -11 9 -62 10 -200 4
-102 -4 -203 -7 -225 -6 -76 4 -320 7 -420 6 -94 -1 -102 -2 -111 -23 -10 -22
-11 -22 -19 -4 -16 41 -44 59 -82 52 -20 -3 -41 -1 -48 5 -7 6 -30 12 -51 13
-21 1 -48 7 -61 14 -13 7 -41 14 -62 14 -23 0 -41 6 -44 14 -3 7 -14 12 -25
11 -23 -1 -29 -16 -8 -18 9 0 9 -2 0 -6 -7 -2 -13 -16 -13 -29 0 -19 5 -24 26
-24 14 0 23 -4 19 -10 -3 -5 -15 -10 -25 -10 -10 0 -21 -6 -24 -12 -5 -10 -7
-10 -12 0 -4 8 -29 12 -75 12 -62 0 -69 -2 -69 -19 0 -30 -17 -34 -24 -6 -4
14 -13 25 -21 25 -8 0 -15 5 -15 10 0 6 7 10 15 10 11 0 15 11 15 36 0 35 -23
73 -34 55 -3 -4 -34 -9 -68 -10 -37 -1 -65 -6 -70 -14 -5 -8 -11 -8 -15 -2 -5
6 -32 12 -60 13 l-53 4 0 -41 c0 -25 5 -41 12 -41 6 0 8 -3 4 -7 -4 -5 -44
-10 -89 -13 -63 -4 -82 -9 -84 -20 -13 -100 -33 -118 -33 -29 0 27 -3 49 -7
49 -5 0 -6 23 -4 51 l3 50 -63 -2 c-35 -1 -70 -6 -76 -12 -9 -6 -15 -4 -19 7
-5 14 -24 15 -158 11 -190 -7 -179 -6 -194 -18 -7 -5 -15 -7 -19 -3 -3 3 -1 6
5 6 7 0 12 5 12 11 0 7 -11 8 -32 3 -18 -4 -42 -7 -52 -6 -11 1 -39 -17 -63
-38 -23 -22 -46 -40 -50 -41 -5 0 -17 -2 -28 -4 -11 -3 -152 -5 -312 -5 -188
-1 -293 -4 -293 -11 0 -6 -7 -6 -19 1 -11 5 -37 10 -59 10 -45 0 -51 -10 -53
-95 -1 -44 -2 -46 -9 -20 -4 17 -8 49 -9 71 l-1 41 -212 2 c-199 2 -260 9
-208 26 12 4 41 7 65 7 37 1 43 4 36 16 -10 18 -89 25 -136 13 -16 -4 -42 -4
-57 0 -22 6 -28 4 -28 -8 0 -9 7 -21 17 -28 33 -24 4 -35 -96 -35 l-98 0 -8
-52 c-6 -48 -8 -51 -17 -28 -5 14 -10 58 -9 97 0 42 -5 76 -11 79 -7 4 -8 2
-4 -4 9 -15 -26 -16 -40 -2 -5 5 -19 7 -32 4 -16 -5 -22 -14 -22 -35 0 -25 4
-29 29 -29 17 0 32 -4 35 -9 7 -11 -17 -21 -50 -21 -17 0 -24 -6 -24 -19 0
-30 -17 -34 -24 -6 -6 23 -10 25 -71 25 -63 0 -65 -1 -65 -25 0 -14 -4 -25
-10 -25 -5 0 -10 11 -10 24 0 17 -7 26 -25 30 -29 7 -24 26 7 26 16 0 19 5 14
23 -3 12 -6 28 -6 36 0 10 -3 11 -14 2 -8 -7 -15 -8 -18 -2 -1 5 -15 7 -30 4
-26 -5 -28 -9 -28 -54 0 -27 -4 -49 -10 -49 -5 0 -10 18 -10 40 l0 39 -23 -22
c-13 -12 -23 -26 -23 -32 1 -6 -100 -11 -279 -12 -154 -1 -301 -2 -326 -2
l-46 -1 -8 -62 c-5 -47 -9 -58 -15 -43 -5 11 -9 39 -9 63 -1 30 -5 42 -15 42
-24 0 -30 21 -7 27 16 4 21 13 21 42 l0 36 -46 0 c-38 0 -50 4 -69 27 -13 15
-26 36 -30 45 -3 10 -31 34 -61 53 -54 34 -75 63 -88 122 -6 28 11 78 26 78 5
0 6 4 3 10 -3 5 5 15 19 21 14 7 23 16 19 22 -4 7 8 8 33 4 21 -3 33 -3 27 0
-24 9 -13 21 18 19 16 -1 32 1 35 6 3 4 21 8 40 8 19 0 34 4 34 9 0 5 9 7 20
4 18 -5 20 0 20 51 0 56 0 56 -31 56 -17 0 -28 4 -24 10 4 6 147 10 396 10
339 0 389 2 389 15 0 23 14 18 27 -10 6 -14 7 -25 2 -25 -5 0 -9 -27 -9 -59 0
-65 7 -71 73 -62 24 3 27 7 27 40 0 51 -10 81 -26 81 -8 0 -14 5 -14 10 0 6 9
10 20 10 11 0 20 7 20 15 0 8 5 15 10 15 6 0 10 -7 10 -15 0 -13 12 -15 68
-13 44 2 67 7 68 16 3 29 4 32 14 32 5 0 12 -11 16 -25 4 -16 13 -25 25 -25
10 0 19 -4 19 -10 0 -5 -9 -10 -21 -10 -19 0 -20 -4 -15 -57 3 -32 5 -62 6
-67 0 -4 10 -6 22 -3 12 3 30 1 40 -4 26 -14 32 -6 35 49 5 118 34 191 41 105
2 -25 6 -32 12 -23 6 10 33 13 111 11 64 -1 104 2 109 8 4 8 23 8 63 0 31 -7
54 -15 52 -20 -3 -4 5 -28 17 -53 20 -43 25 -46 61 -46 23 0 36 4 32 10 -9 14
12 12 44 -5 16 -8 31 -11 35 -8 3 4 6 28 6 55 0 47 -1 48 -31 48 -17 0 -28 4
-24 10 3 6 51 10 109 10 113 0 115 1 116 70 0 20 2 22 10 10 5 -8 10 -31 10
-51z m3690 -639 c0 -5 -6 -10 -14 -10 -8 0 -18 5 -21 10 -3 6 3 10 14 10 12 0
21 -4 21 -10z m2630 -370 c0 -9 -32 -30 -46 -30 -4 0 1 9 11 20 19 21 35 26
35 10z m-2920 -80 c21 -7 18 -8 -18 -9 -26 -1 -41 3 -37 9 7 11 19 11 55 0z
m168 -17 c-10 -2 -26 -2 -35 0 -10 3 -2 5 17 5 19 0 27 -2 18 -5z m2627 -3
c-3 -5 -21 -10 -38 -9 -31 1 -31 1 -7 9 36 11 52 11 45 0z m-150 -10 c-11 -5
-69 -8 -130 -8 -74 0 -98 3 -75 8 51 11 230 11 205 0z m-3850 -13 c1171 7
1301 6 1350 -6 30 -7 167 -14 348 -18 163 -3 297 -6 297 -7 -2 -30 -49 -143
-79 -191 -23 -35 -41 -67 -41 -71 0 -3 -22 -38 -49 -77 -27 -40 -60 -92 -74
-117 -34 -60 -140 -190 -241 -297 -96 -102 -260 -215 -435 -300 -64 -31 -127
-65 -141 -75 -48 -34 -170 -68 -322 -89 -149 -21 -163 -22 -508 -10 -195 7
-396 14 -446 15 -101 3 -175 19 -217 49 -16 11 -56 28 -89 38 -80 25 -260 116
-327 165 -30 21 -74 50 -97 64 -185 110 -412 351 -479 510 -11 25 -39 67 -62
94 -24 26 -43 53 -43 59 0 11 -67 116 -84 132 -28 26 -77 97 -71 103 4 4 178
10 388 14 513 9 851 19 857 25 3 3 73 1 155 -4 83 -4 267 -7 410 -6z m1658 6
c-7 -2 -19 -2 -25 0 -7 3 -2 5 12 5 14 0 19 -2 13 -5z m1840 -171 c37 -41 29
-130 -14 -152 -23 -13 -61 -13 -93 0 l-26 9 30 51 c17 28 30 53 30 55 0 2 4
15 10 29 11 31 40 34 63 8z m291 -124 c54 -125 65 -166 50 -181 -9 -8 -164 71
-164 83 0 16 51 114 64 122 22 15 37 8 50 -24z m203 -177 c33 -21 63 -43 66
-48 16 -25 -77 -268 -120 -315 -18 -20 -51 -23 -97 -8 -17 5 -48 12 -69 15
-25 4 -37 11 -34 18 3 7 24 57 47 112 22 55 49 111 59 124 18 23 18 23 52 6
19 -10 45 -26 58 -36 32 -26 43 -24 35 7 -5 20 -2 26 15 31 20 5 30 23 13 23
-5 0 -29 13 -53 30 -46 31 -59 36 -59 21 0 -5 16 -18 35 -30 31 -18 34 -23 25
-41 -11 -20 -12 -20 -41 -3 -47 28 -51 36 -38 87 14 58 27 58 106 7z m-251
-16 c51 -24 74 -41 74 -53 -1 -9 -20 -51 -44 -92 l-42 -75 -43 2 c-51 2 -135
50 -139 80 -3 18 13 49 75 151 18 30 32 28 119 -13z m-6866 -39 c0 -34 -52
-51 -64 -21 -10 26 5 45 35 45 24 0 29 -4 29 -24z m6730 -193 c82 -31 86 -35
70 -74 -20 -48 -63 -69 -142 -69 -103 0 -117 13 -79 76 10 17 22 41 26 55 11
36 26 51 44 43 9 -3 45 -17 81 -31z m-415 -60 c31 -31 37 -63 18 -101 -10 -20
-30 -44 -44 -55 -22 -16 -31 -17 -67 -7 -24 6 -42 17 -42 25 0 21 68 133 88
144 23 14 28 13 47 -6z m-6915 -783 c11 -27 10 -31 -16 -53 -16 -14 -54 -45
-84 -71 l-55 -46 -43 46 c-23 26 -41 52 -39 58 6 17 168 96 198 96 20 0 30 -7
39 -30z m1594 -63 c-1 -8 -26 -55 -56 -104 -30 -48 -71 -115 -92 -148 -20 -33
-50 -87 -65 -120 -15 -33 -47 -90 -70 -128 -22 -37 -41 -70 -41 -73 0 -6 -154
-239 -175 -264 -11 -13 -132 -234 -173 -315 -9 -16 -34 -57 -57 -90 -24 -33
-57 -88 -74 -122 -17 -34 -35 -64 -41 -68 -20 -12 -9 -25 41 -50 28 -15 70
-43 92 -63 110 -97 146 -123 256 -181 14 -7 36 -22 47 -33 l22 -19 23 48 c12
26 44 77 70 113 25 36 70 103 99 150 51 83 72 113 190 270 31 41 81 116 112
165 123 200 167 273 203 340 20 39 49 87 64 109 14 21 42 68 61 104 39 73 62
94 82 74 14 -14 -14 -75 -84 -184 -21 -33 -55 -89 -75 -126 -106 -196 -227
-385 -381 -599 -121 -168 -247 -359 -301 -456 -48 -87 -62 -93 -107 -46 -16
17 -42 37 -59 45 -71 34 -170 105 -272 196 -24 21 -47 38 -53 38 -18 0 -110
61 -110 73 0 7 14 23 31 36 17 13 44 52 61 85 17 33 52 91 79 130 27 38 49 73
49 78 0 5 11 25 24 46 12 20 48 84 78 142 31 58 74 132 97 165 119 171 192
290 270 440 46 87 114 205 175 303 37 58 63 75 60 39z m-1539 -7 c16 -17 17
-25 6 -59 -11 -37 -66 -128 -98 -161 -12 -13 -19 -9 -59 32 -46 49 -57 79 -26
72 11 -2 39 20 82 65 36 38 68 69 71 70 3 0 14 -8 24 -19z m17 -142 c-7 -7
-12 -31 -12 -54 0 -36 5 -47 40 -78 47 -43 81 -46 115 -11 47 46 23 110 -37
98 -24 -5 -30 -3 -26 8 9 27 54 22 93 -12 33 -29 65 -76 65 -96 0 -10 -176
-167 -305 -272 -136 -110 -198 -139 -344 -157 -153 -19 -176 -18 -228 8 -56
28 -74 62 -83 153 -11 109 28 213 87 236 78 29 226 -90 207 -167 -8 -31 -55
-54 -109 -54 -29 0 -37 5 -45 26 -13 33 -13 74 0 74 6 0 10 -9 10 -19 0 -41
46 -36 56 6 14 54 -71 87 -111 43 -22 -24 -17 -115 8 -154 15 -23 24 -26 70
-26 68 0 134 23 174 59 37 33 51 97 34 156 -11 41 -1 75 23 75 8 0 31 -21 52
-47 58 -72 102 -113 118 -113 17 0 32 42 21 60 -8 13 15 110 27 110 4 0 8 8 8
17 0 20 91 156 98 148 3 -3 0 -11 -6 -17z m1677 -45 c24 -15 37 -30 31 -33 -6
-4 -8 -18 -5 -32 5 -18 -3 -38 -27 -75 -18 -28 -53 -88 -78 -133 -58 -108 -70
-113 -154 -66 l-65 36 15 42 c25 73 158 280 187 292 20 8 52 -2 96 -31z m4210
-77 c16 -17 21 -31 16 -45 -9 -29 -27 -26 -54 10 -39 52 -6 82 38 35z m-4002
-54 c26 -21 43 -43 43 -56 0 -11 -20 -56 -45 -99 -24 -43 -59 -107 -76 -143
-34 -68 -47 -83 -58 -67 -3 6 -35 25 -71 43 -36 18 -68 38 -72 44 -9 14 51
123 113 203 26 34 50 76 54 93 6 29 9 31 38 24 18 -4 51 -22 74 -42z m-2252
18 c3 -5 -1 -10 -9 -10 -8 0 -18 5 -21 10 -3 6 1 10 9 10 8 0 18 -4 21 -10z
m839 -136 c14 -36 5 -67 -28 -100 -60 -60 -126 -37 -126 43 0 36 14 42 46 18
10 -8 29 -15 42 -15 29 0 41 29 19 45 -9 7 -14 15 -10 18 12 13 51 7 57 -9z
m5256 -169 c27 -43 32 -44 18 -4 -11 33 -7 44 16 36 13 -5 33 -64 24 -72 -1
-1 -16 -5 -33 -9 -26 -5 -33 -2 -52 27 -13 18 -23 39 -23 45 0 24 29 11 50
-23z m1414 10 c24 -37 20 -45 -16 -32 -44 16 -63 39 -40 49 29 12 39 9 56 -17z
m-1484 -15 c0 -6 11 -20 25 -32 25 -22 25 -38 -1 -38 -18 0 -64 48 -64 66 0 8
9 14 20 14 11 0 20 -5 20 -10z m-4243 -32 c35 -18 63 -36 63 -40 0 -4 -15 -31
-33 -60 -19 -29 -57 -98 -87 -153 -29 -55 -57 -105 -62 -112 -7 -8 -26 -1 -71
28 -34 21 -73 47 -86 57 l-23 19 87 132 c81 122 114 161 140 161 5 0 38 -14
72 -32z m-197 -19 c0 -20 -34 -77 -54 -91 -31 -21 -36 47 -5 86 25 32 59 35
59 5z m409 -114 c20 -11 37 -29 38 -40 3 -26 -168 -299 -189 -303 -9 -2 -25 5
-36 16 -10 10 -36 25 -57 34 -22 8 -41 20 -42 25 -2 5 8 27 23 48 14 21 30 49
35 63 17 45 104 170 129 185 19 12 28 13 44 4 10 -7 35 -21 55 -32z m1102 19
c87 -24 110 -36 119 -58 10 -28 -10 -65 -57 -105 -21 -18 -53 -46 -71 -64 -29
-28 -34 -30 -48 -16 -23 24 -51 223 -34 243 16 20 23 20 91 0z m2293 -26 c11
-21 16 -59 16 -114 l0 -83 -32 -17 c-26 -14 -35 -14 -52 -4 -12 7 -55 31 -97
52 -85 42 -94 51 -104 89 -6 23 -2 27 37 38 24 7 59 20 78 28 19 9 58 21 85
28 28 7 51 13 52 14 1 1 9 -13 17 -31z m834 -16 c11 10 18 8 33 -11 25 -31 25
-55 -1 -48 -11 3 -20 1 -20 -4 0 -18 -25 -8 -43 17 -20 27 -16 67 5 46 9 -9
15 -9 26 0z m-35 -72 c19 -32 16 -53 -7 -44 -13 5 -36 46 -36 64 0 21 27 8 43
-20z m177 -99 c14 -27 13 -51 -3 -51 -13 0 -37 40 -37 60 0 18 29 10 40 -9z
m-40 -28 c29 -37 10 -55 -25 -23 -14 13 -25 29 -25 37 0 22 27 15 50 -14z
m-20 -55 c0 -15 -27 -8 -45 12 -11 12 -15 26 -10 37 6 16 9 15 31 -12 13 -16
24 -33 24 -37z m-4827 -48 c26 -16 50 -36 53 -43 3 -8 -19 -50 -48 -95 -29
-45 -79 -122 -111 -172 -33 -49 -61 -90 -63 -90 -14 0 -144 85 -144 94 0 6 9
25 21 41 11 17 36 61 55 99 47 92 140 190 185 195 3 1 26 -12 52 -29z m4997
-7 c24 -21 26 -43 5 -43 -20 0 -57 38 -50 50 9 14 22 12 45 -7z m-3476 -32 c6
-9 9 -18 9 -21 -1 -3 2 -9 7 -15 13 -16 -8 -55 -35 -65 -38 -15 -43 -13 -60
20 -20 40 -19 60 7 87 24 25 56 23 72 -6z m3440 -20 c15 -28 14 -30 -9 -45
-33 -22 -40 -20 -64 10 -43 55 -18 73 29 22 16 -18 30 -28 30 -22 0 6 -7 17
-15 24 -8 7 -15 19 -15 26 0 25 29 15 44 -15z m-4774 -66 c33 -21 40 -31 40
-58 0 -37 -36 -110 -90 -182 -21 -27 -47 -71 -58 -98 -12 -26 -28 -50 -36 -53
-16 -6 -83 24 -124 55 l-24 18 30 44 c16 24 59 91 95 149 64 103 102 150 119
150 5 0 26 -11 48 -25z m4933 -69 c26 -35 47 -71 47 -79 0 -19 -43 -47 -73
-47 -33 0 -107 84 -107 122 0 21 59 78 75 72 7 -3 33 -33 58 -68z"/>
<path d="M3630 8477 c0 -32 35 -241 51 -300 18 -69 26 -29 9 45 -10 40 -23
114 -30 163 -14 95 -29 143 -30 92z"/>
<path d="M6524 8568 c4 -13 9 -114 13 -225 4 -130 10 -200 16 -196 18 11 -7
443 -26 443 -5 0 -6 -10 -3 -22z"/>
<path d="M1587 5506 c10 -13 20 -20 21 -15 7 17 -7 39 -23 39 -14 0 -14 -3 2
-24z"/>
<path d="M4690 5483 l0 -43 40 0 40 0 0 45 0 45 -40 -2 c-40 -3 -40 -3 -40
-45z"/>
<path d="M2160 5509 c0 -5 5 -7 10 -4 6 3 10 8 10 11 0 2 -4 4 -10 4 -5 0 -10
-5 -10 -11z"/>
<path d="M2246 5504 c-5 -14 -4 -15 9 -4 17 14 19 20 6 20 -5 0 -12 -7 -15
-16z"/>
<path d="M7859 5493 l-24 -28 30 25 c17 14 32 26 34 28 2 1 0 2 -6 2 -5 0 -20
-12 -34 -27z"/>
<path d="M5988 5063 c6 -2 18 -2 25 0 6 3 1 5 -13 5 -14 0 -19 -2 -12 -5z"/>
<path d="M2823 4993 c-7 -2 -13 -20 -13 -38 0 -37 21 -48 71 -38 26 5 29 10
29 44 0 39 0 39 -37 38 -21 0 -44 -3 -50 -6z"/>
<path d="M2070 4930 c0 -5 5 -10 10 -10 6 0 10 5 10 10 0 6 -4 10 -10 10 -5 0
-10 -4 -10 -10z"/>
<path d="M8360 4889 c0 -5 5 -7 10 -4 6 3 10 8 10 11 0 2 -4 4 -10 4 -5 0 -10
-5 -10 -11z"/>
<path d="M8400 4890 c0 -6 7 -13 15 -17 24 -9 27 1 5 15 -13 8 -20 8 -20 2z"/>
<path d="M8873 3858 c1 -18 -3 -23 -20 -22 -38 1 -26 -14 20 -27 58 -16 99
-16 104 -1 3 7 -4 12 -15 12 -10 0 -27 9 -38 21 -10 11 -27 25 -36 30 -15 8
-17 6 -15 -13z"/>
<path d="M8830 3794 c0 -6 5 -15 12 -22 9 -9 8 -12 -3 -16 -8 -2 -21 -7 -29
-9 -8 -3 1 -6 21 -6 24 -1 43 -9 59 -26 28 -30 51 -34 24 -4 -16 17 -16 22 -4
29 8 6 21 10 28 10 6 0 12 4 12 8 0 4 -16 6 -36 4 -27 -3 -41 1 -60 19 -13 12
-24 18 -24 13z"/>
<path d="M8780 3690 c0 -10 55 -36 99 -47 38 -9 22 3 -42 32 -31 13 -57 20
-57 15z"/>
<path d="M7486 1531 c-16 -17 -15 -21 21 -60 33 -37 40 -40 55 -29 17 12 16
16 -15 60 -17 26 -35 48 -38 48 -3 0 -14 -8 -23 -19z"/>
<path d="M4852 9198 c-28 -28 -12 -55 53 -88 45 -23 213 -133 214 -140 0 -3
-18 -18 -41 -35 -23 -16 -60 -43 -82 -60 -23 -16 -68 -43 -101 -60 -42 -21
-62 -38 -69 -58 -14 -38 10 -62 52 -52 35 7 191 104 305 189 93 68 99 90 35
126 -24 13 -79 47 -124 76 -90 58 -196 114 -217 114 -7 0 -18 -5 -25 -12z"/>
<path d="M7264 8296 c-32 -14 -134 -110 -134 -126 0 -5 19 0 43 10 89 41 167
13 167 -59 0 -20 9 -65 21 -98 18 -55 24 -63 60 -77 55 -22 70 -21 161 19 44
19 84 32 88 30 11 -7 33 62 26 80 -9 23 -65 18 -101 -9 -42 -32 -78 -41 -107
-25 -37 20 -47 40 -48 94 -1 106 -36 163 -107 171 -21 2 -52 -2 -69 -10z"/>
<path d="M2030 8211 c-8 -16 -3 -28 30 -66 40 -46 71 -98 84 -142 6 -17 -4
-33 -44 -75 -63 -65 -74 -85 -90 -169 -12 -62 -12 -68 10 -112 12 -25 47 -69
76 -98 l54 -53 22 21 21 22 -47 52 c-25 28 -49 62 -52 76 -11 42 3 112 30 153
14 22 26 47 26 56 0 9 14 33 30 54 17 21 30 42 30 46 0 5 23 25 51 44 27 19
75 54 106 78 30 23 65 42 77 42 36 -1 115 -51 192 -122 l30 -28 25 26 24 26
-65 59 c-107 97 -148 121 -197 116 -42 -4 -183 -87 -183 -107 0 -6 -5 -10 -12
-10 -14 0 -142 87 -165 112 -21 24 -50 23 -63 -1z"/>
<path d="M8791 2013 c0 -50 10 -85 22 -84 24 3 34 -1 44 -18 10 -16 9 -24 -7
-43 l-20 -23 -24 29 c-14 17 -22 34 -19 39 6 10 -46 67 -62 67 -7 0 -20 -8
-29 -19 -16 -17 -15 -20 19 -50 l36 -31 -56 0 c-52 0 -55 -1 -55 -25 0 -22 4
-25 40 -25 47 0 50 -11 14 -53 l-25 -30 25 -26 26 -26 42 49 42 48 12 -72 c15
-85 31 -104 67 -77 16 11 16 18 6 65 -6 30 -9 55 -7 57 2 2 26 -14 53 -35 58
-46 70 -48 86 -18 11 20 7 27 -47 76 l-59 54 73 -7 72 -7 0 30 c0 17 -5 34
-11 38 -6 4 -43 7 -82 6 l-71 0 43 39 c40 38 42 41 28 62 -22 33 -44 32 -77
-5 l-30 -32 0 31 c0 49 -9 63 -41 63 -28 0 -29 -2 -28 -47z"/>
<path d="M1693 1143 c-10 -15 -25 -45 -33 -66 -8 -22 -20 -42 -26 -44 -6 -2
-35 16 -65 41 -30 25 -55 44 -56 42 -7 -7 54 -179 84 -238 40 -79 79 -132 172
-236 56 -63 79 -80 156 -117 176 -84 316 -108 489 -85 111 16 111 20 10 90
-59 42 -76 64 -55 72 13 5 70 101 65 110 -7 10 -180 124 -249 163 -27 16 -106
67 -175 113 -106 72 -285 182 -296 182 -2 0 -12 -12 -21 -27z m169 -126 c37
-14 90 -39 118 -56 28 -17 53 -31 56 -31 5 0 80 -45 222 -134 43 -27 96 -127
87 -164 -9 -37 -52 -88 -86 -102 -45 -19 -141 -4 -219 33 -110 54 -272 159
-317 206 -50 52 -83 115 -83 157 0 21 11 41 37 68 62 63 72 65 185 23z"/>
<path d="M1834 971 c-17 -11 -41 -39 -53 -63 -32 -67 -25 -183 7 -120 5 9 7
31 5 49 -4 28 2 39 46 86 28 30 51 57 51 60 0 13 -25 7 -56 -12z"/>
<path d="M1930 925 c-6 -14 -10 -33 -10 -41 0 -31 -32 -75 -73 -101 -38 -25
-40 -28 -19 -31 28 -4 86 38 113 82 20 33 26 101 9 111 -6 3 -15 -6 -20 -20z"/>
<path d="M2046 820 c-37 -23 -76 -86 -76 -121 0 -32 17 -49 51 -49 50 0 143
129 125 175 -8 21 -65 19 -100 -5z m64 -16 c0 -17 -48 -105 -65 -116 -38 -27
-48 24 -14 78 30 49 79 73 79 38z"/>
<path d="M2200 775 c0 -19 -77 -146 -98 -163 -16 -12 -15 -15 8 -32 38 -30 80
-24 50 6 -8 8 0 31 25 75 46 81 53 89 71 82 23 -9 16 14 -11 31 -30 20 -45 20
-45 1z"/>
<path d="M1430 1100 c-36 -66 -14 -274 39 -384 37 -74 104 -181 140 -220 50
-54 145 -116 329 -212 76 -41 88 -44 158 -44 141 0 412 99 414 151 0 3 -33 1
-72 -4 -164 -20 -396 11 -492 67 -23 13 -52 27 -64 31 -35 10 -107 61 -125 87
-8 13 -34 43 -57 68 -97 102 -171 230 -214 370 -34 109 -40 120 -56 90z"/>
</g>
</svg>
